<mxfile host="app.diagrams.net" modified="2021-10-18T18:17:50.449Z" agent="5.0 (Windows NT 10.0; Win64; x64) AppleWebKit/537.36 (KHTML, like Gecko) Chrome/94.0.4606.81 Safari/537.36" etag="NiKdnE86aG8ziT3me6Vf" version="15.5.2" type="github">
  <diagram id="LpQs74Q7t9eoA0Xvi8VY" name="Page-1">
    <mxGraphModel dx="868" dy="496" grid="1" gridSize="10" guides="1" tooltips="1" connect="1" arrows="1" fold="1" page="1" pageScale="1" pageWidth="1169" pageHeight="827" math="0" shadow="0">
      <root>
        <mxCell id="0" />
        <mxCell id="1" parent="0" />
        <mxCell id="WVe9Pf1gmOU2xPexmFBz-3" value="&lt;span style=&quot;border-bottom: 1px dotted&quot;&gt;&lt;u&gt;CRM&lt;/u&gt;&lt;/span&gt;" style="ellipse;whiteSpace=wrap;html=1;align=center;" vertex="1" parent="1">
          <mxGeometry x="760" y="509" width="100" height="40" as="geometry" />
        </mxCell>
        <mxCell id="WVe9Pf1gmOU2xPexmFBz-58" style="edgeStyle=orthogonalEdgeStyle;rounded=0;orthogonalLoop=1;jettySize=auto;html=1;exitX=0.5;exitY=0;exitDx=0;exitDy=0;endArrow=none;endFill=0;" edge="1" parent="1" source="WVe9Pf1gmOU2xPexmFBz-5" target="WVe9Pf1gmOU2xPexmFBz-48">
          <mxGeometry relative="1" as="geometry" />
        </mxCell>
        <mxCell id="WVe9Pf1gmOU2xPexmFBz-64" style="edgeStyle=orthogonalEdgeStyle;rounded=0;orthogonalLoop=1;jettySize=auto;html=1;exitX=0.5;exitY=1;exitDx=0;exitDy=0;endArrow=none;endFill=0;" edge="1" parent="1" source="WVe9Pf1gmOU2xPexmFBz-5" target="WVe9Pf1gmOU2xPexmFBz-39">
          <mxGeometry relative="1" as="geometry" />
        </mxCell>
        <mxCell id="WVe9Pf1gmOU2xPexmFBz-65" style="edgeStyle=orthogonalEdgeStyle;rounded=0;orthogonalLoop=1;jettySize=auto;html=1;exitX=0;exitY=0.5;exitDx=0;exitDy=0;entryX=1;entryY=0.5;entryDx=0;entryDy=0;endArrow=none;endFill=0;" edge="1" parent="1" source="WVe9Pf1gmOU2xPexmFBz-5" target="WVe9Pf1gmOU2xPexmFBz-46">
          <mxGeometry relative="1" as="geometry" />
        </mxCell>
        <mxCell id="WVe9Pf1gmOU2xPexmFBz-76" style="edgeStyle=orthogonalEdgeStyle;rounded=0;orthogonalLoop=1;jettySize=auto;html=1;exitX=0.25;exitY=0;exitDx=0;exitDy=0;entryX=0.5;entryY=1;entryDx=0;entryDy=0;endArrow=none;endFill=0;" edge="1" parent="1" source="WVe9Pf1gmOU2xPexmFBz-5" target="WVe9Pf1gmOU2xPexmFBz-45">
          <mxGeometry relative="1" as="geometry" />
        </mxCell>
        <mxCell id="WVe9Pf1gmOU2xPexmFBz-77" style="edgeStyle=orthogonalEdgeStyle;rounded=0;orthogonalLoop=1;jettySize=auto;html=1;exitX=0.25;exitY=1;exitDx=0;exitDy=0;entryX=0.5;entryY=0;entryDx=0;entryDy=0;endArrow=none;endFill=0;" edge="1" parent="1" source="WVe9Pf1gmOU2xPexmFBz-5" target="WVe9Pf1gmOU2xPexmFBz-43">
          <mxGeometry relative="1" as="geometry" />
        </mxCell>
        <mxCell id="WVe9Pf1gmOU2xPexmFBz-5" value="Pacientes" style="whiteSpace=wrap;html=1;align=center;" vertex="1" parent="1">
          <mxGeometry x="370" y="399" width="100" height="40" as="geometry" />
        </mxCell>
        <mxCell id="WVe9Pf1gmOU2xPexmFBz-13" style="edgeStyle=orthogonalEdgeStyle;rounded=0;orthogonalLoop=1;jettySize=auto;html=1;exitX=0;exitY=0.5;exitDx=0;exitDy=0;entryX=1;entryY=0.5;entryDx=0;entryDy=0;endArrow=none;endFill=0;" edge="1" parent="1" source="WVe9Pf1gmOU2xPexmFBz-6" target="WVe9Pf1gmOU2xPexmFBz-7">
          <mxGeometry relative="1" as="geometry" />
        </mxCell>
        <mxCell id="WVe9Pf1gmOU2xPexmFBz-17" value="(0,N)" style="edgeLabel;html=1;align=center;verticalAlign=middle;resizable=0;points=[];" vertex="1" connectable="0" parent="WVe9Pf1gmOU2xPexmFBz-13">
          <mxGeometry x="0.6643" y="1" relative="1" as="geometry">
            <mxPoint as="offset" />
          </mxGeometry>
        </mxCell>
        <mxCell id="WVe9Pf1gmOU2xPexmFBz-18" value="(1,1)" style="edgeLabel;html=1;align=center;verticalAlign=middle;resizable=0;points=[];" vertex="1" connectable="0" parent="WVe9Pf1gmOU2xPexmFBz-13">
          <mxGeometry x="-0.7786" relative="1" as="geometry">
            <mxPoint x="-6" as="offset" />
          </mxGeometry>
        </mxCell>
        <mxCell id="WVe9Pf1gmOU2xPexmFBz-60" style="edgeStyle=orthogonalEdgeStyle;rounded=0;orthogonalLoop=1;jettySize=auto;html=1;exitX=0.5;exitY=0;exitDx=0;exitDy=0;entryX=0.5;entryY=1;entryDx=0;entryDy=0;endArrow=none;endFill=0;" edge="1" parent="1" source="WVe9Pf1gmOU2xPexmFBz-6" target="WVe9Pf1gmOU2xPexmFBz-59">
          <mxGeometry relative="1" as="geometry" />
        </mxCell>
        <mxCell id="WVe9Pf1gmOU2xPexmFBz-63" style="edgeStyle=orthogonalEdgeStyle;rounded=0;orthogonalLoop=1;jettySize=auto;html=1;exitX=0.5;exitY=1;exitDx=0;exitDy=0;entryX=0.5;entryY=0;entryDx=0;entryDy=0;endArrow=none;endFill=0;" edge="1" parent="1" source="WVe9Pf1gmOU2xPexmFBz-6" target="WVe9Pf1gmOU2xPexmFBz-3">
          <mxGeometry relative="1" as="geometry" />
        </mxCell>
        <mxCell id="WVe9Pf1gmOU2xPexmFBz-79" style="edgeStyle=orthogonalEdgeStyle;rounded=0;orthogonalLoop=1;jettySize=auto;html=1;exitX=0.75;exitY=1;exitDx=0;exitDy=0;entryX=0.5;entryY=0;entryDx=0;entryDy=0;endArrow=none;endFill=0;" edge="1" parent="1" source="WVe9Pf1gmOU2xPexmFBz-6" target="WVe9Pf1gmOU2xPexmFBz-78">
          <mxGeometry relative="1" as="geometry" />
        </mxCell>
        <mxCell id="WVe9Pf1gmOU2xPexmFBz-80" style="edgeStyle=orthogonalEdgeStyle;rounded=0;orthogonalLoop=1;jettySize=auto;html=1;exitX=1;exitY=0.5;exitDx=0;exitDy=0;entryX=0;entryY=0.5;entryDx=0;entryDy=0;endArrow=none;endFill=0;" edge="1" parent="1" source="WVe9Pf1gmOU2xPexmFBz-6" target="WVe9Pf1gmOU2xPexmFBz-44">
          <mxGeometry relative="1" as="geometry" />
        </mxCell>
        <mxCell id="WVe9Pf1gmOU2xPexmFBz-82" style="edgeStyle=orthogonalEdgeStyle;rounded=0;orthogonalLoop=1;jettySize=auto;html=1;exitX=0.75;exitY=0;exitDx=0;exitDy=0;entryX=0.5;entryY=1;entryDx=0;entryDy=0;endArrow=none;endFill=0;" edge="1" parent="1" source="WVe9Pf1gmOU2xPexmFBz-6" target="WVe9Pf1gmOU2xPexmFBz-81">
          <mxGeometry relative="1" as="geometry" />
        </mxCell>
        <mxCell id="WVe9Pf1gmOU2xPexmFBz-6" value="MÃ©dicos" style="whiteSpace=wrap;html=1;align=center;" vertex="1" parent="1">
          <mxGeometry x="760" y="399" width="100" height="40" as="geometry" />
        </mxCell>
        <mxCell id="WVe9Pf1gmOU2xPexmFBz-14" style="edgeStyle=orthogonalEdgeStyle;rounded=0;orthogonalLoop=1;jettySize=auto;html=1;exitX=0;exitY=0.5;exitDx=0;exitDy=0;endArrow=none;endFill=0;" edge="1" parent="1" source="WVe9Pf1gmOU2xPexmFBz-7" target="WVe9Pf1gmOU2xPexmFBz-5">
          <mxGeometry relative="1" as="geometry" />
        </mxCell>
        <mxCell id="WVe9Pf1gmOU2xPexmFBz-15" value="(1,1)" style="edgeLabel;html=1;align=center;verticalAlign=middle;resizable=0;points=[];" vertex="1" connectable="0" parent="WVe9Pf1gmOU2xPexmFBz-14">
          <mxGeometry x="0.6786" y="2" relative="1" as="geometry">
            <mxPoint as="offset" />
          </mxGeometry>
        </mxCell>
        <mxCell id="WVe9Pf1gmOU2xPexmFBz-16" value="(0,N)" style="edgeLabel;html=1;align=center;verticalAlign=middle;resizable=0;points=[];" vertex="1" connectable="0" parent="WVe9Pf1gmOU2xPexmFBz-14">
          <mxGeometry x="-0.6929" relative="1" as="geometry">
            <mxPoint x="-3" as="offset" />
          </mxGeometry>
        </mxCell>
        <mxCell id="WVe9Pf1gmOU2xPexmFBz-85" style="edgeStyle=orthogonalEdgeStyle;rounded=0;orthogonalLoop=1;jettySize=auto;html=1;exitX=0.5;exitY=0;exitDx=0;exitDy=0;entryX=0.5;entryY=1;entryDx=0;entryDy=0;endArrow=none;endFill=0;" edge="1" parent="1" source="WVe9Pf1gmOU2xPexmFBz-7" target="WVe9Pf1gmOU2xPexmFBz-83">
          <mxGeometry relative="1" as="geometry" />
        </mxCell>
        <mxCell id="WVe9Pf1gmOU2xPexmFBz-87" value="(1,1)" style="edgeLabel;html=1;align=center;verticalAlign=middle;resizable=0;points=[];" vertex="1" connectable="0" parent="WVe9Pf1gmOU2xPexmFBz-85">
          <mxGeometry x="-0.6857" y="-1" relative="1" as="geometry">
            <mxPoint as="offset" />
          </mxGeometry>
        </mxCell>
        <mxCell id="WVe9Pf1gmOU2xPexmFBz-99" style="edgeStyle=orthogonalEdgeStyle;rounded=0;orthogonalLoop=1;jettySize=auto;html=1;exitX=0;exitY=0.25;exitDx=0;exitDy=0;entryX=1;entryY=0.5;entryDx=0;entryDy=0;endArrow=none;endFill=0;" edge="1" parent="1" source="WVe9Pf1gmOU2xPexmFBz-7" target="WVe9Pf1gmOU2xPexmFBz-42">
          <mxGeometry relative="1" as="geometry" />
        </mxCell>
        <mxCell id="WVe9Pf1gmOU2xPexmFBz-100" style="edgeStyle=orthogonalEdgeStyle;rounded=0;orthogonalLoop=1;jettySize=auto;html=1;exitX=0;exitY=0;exitDx=0;exitDy=0;entryX=1;entryY=0.5;entryDx=0;entryDy=0;endArrow=none;endFill=0;" edge="1" parent="1" source="WVe9Pf1gmOU2xPexmFBz-7" target="WVe9Pf1gmOU2xPexmFBz-95">
          <mxGeometry relative="1" as="geometry">
            <Array as="points">
              <mxPoint x="540" y="399" />
              <mxPoint x="540" y="170" />
            </Array>
          </mxGeometry>
        </mxCell>
        <mxCell id="WVe9Pf1gmOU2xPexmFBz-104" style="edgeStyle=orthogonalEdgeStyle;rounded=0;orthogonalLoop=1;jettySize=auto;html=1;exitX=0.25;exitY=0;exitDx=0;exitDy=0;entryX=1;entryY=0.5;entryDx=0;entryDy=0;endArrow=none;endFill=0;" edge="1" parent="1" source="WVe9Pf1gmOU2xPexmFBz-7" target="WVe9Pf1gmOU2xPexmFBz-103">
          <mxGeometry relative="1" as="geometry">
            <Array as="points">
              <mxPoint x="605" y="380" />
              <mxPoint x="560" y="380" />
              <mxPoint x="560" y="99" />
            </Array>
          </mxGeometry>
        </mxCell>
        <mxCell id="WVe9Pf1gmOU2xPexmFBz-7" value="Consulta" style="whiteSpace=wrap;html=1;align=center;" vertex="1" parent="1">
          <mxGeometry x="580" y="399" width="100" height="40" as="geometry" />
        </mxCell>
        <mxCell id="WVe9Pf1gmOU2xPexmFBz-56" style="edgeStyle=orthogonalEdgeStyle;rounded=0;orthogonalLoop=1;jettySize=auto;html=1;exitX=1;exitY=0.5;exitDx=0;exitDy=0;endArrow=none;endFill=0;" edge="1" parent="1" source="WVe9Pf1gmOU2xPexmFBz-9" target="WVe9Pf1gmOU2xPexmFBz-51">
          <mxGeometry relative="1" as="geometry" />
        </mxCell>
        <mxCell id="WVe9Pf1gmOU2xPexmFBz-74" style="edgeStyle=orthogonalEdgeStyle;rounded=0;orthogonalLoop=1;jettySize=auto;html=1;exitX=0.75;exitY=0;exitDx=0;exitDy=0;entryX=0.5;entryY=1;entryDx=0;entryDy=0;endArrow=none;endFill=0;" edge="1" parent="1" source="WVe9Pf1gmOU2xPexmFBz-9" target="WVe9Pf1gmOU2xPexmFBz-53">
          <mxGeometry relative="1" as="geometry" />
        </mxCell>
        <mxCell id="WVe9Pf1gmOU2xPexmFBz-75" style="edgeStyle=orthogonalEdgeStyle;rounded=0;orthogonalLoop=1;jettySize=auto;html=1;exitX=0.5;exitY=0;exitDx=0;exitDy=0;entryX=0.5;entryY=1;entryDx=0;entryDy=0;endArrow=none;endFill=0;" edge="1" parent="1" source="WVe9Pf1gmOU2xPexmFBz-9" target="WVe9Pf1gmOU2xPexmFBz-52">
          <mxGeometry relative="1" as="geometry" />
        </mxCell>
        <mxCell id="WVe9Pf1gmOU2xPexmFBz-84" style="edgeStyle=orthogonalEdgeStyle;rounded=0;orthogonalLoop=1;jettySize=auto;html=1;exitX=0.5;exitY=1;exitDx=0;exitDy=0;entryX=0.5;entryY=0;entryDx=0;entryDy=0;endArrow=none;endFill=0;" edge="1" parent="1" source="WVe9Pf1gmOU2xPexmFBz-9" target="WVe9Pf1gmOU2xPexmFBz-83">
          <mxGeometry relative="1" as="geometry" />
        </mxCell>
        <mxCell id="WVe9Pf1gmOU2xPexmFBz-86" value="(1,N)" style="edgeLabel;html=1;align=center;verticalAlign=middle;resizable=0;points=[];" vertex="1" connectable="0" parent="WVe9Pf1gmOU2xPexmFBz-84">
          <mxGeometry x="-0.7281" y="1" relative="1" as="geometry">
            <mxPoint as="offset" />
          </mxGeometry>
        </mxCell>
        <mxCell id="WVe9Pf1gmOU2xPexmFBz-9" value="Exame" style="whiteSpace=wrap;html=1;align=center;" vertex="1" parent="1">
          <mxGeometry x="580" y="187" width="100" height="40" as="geometry" />
        </mxCell>
        <mxCell id="WVe9Pf1gmOU2xPexmFBz-55" style="edgeStyle=orthogonalEdgeStyle;rounded=0;orthogonalLoop=1;jettySize=auto;html=1;exitX=1;exitY=0.5;exitDx=0;exitDy=0;entryX=0;entryY=0.5;entryDx=0;entryDy=0;endArrow=none;endFill=0;" edge="1" parent="1" source="WVe9Pf1gmOU2xPexmFBz-10" target="WVe9Pf1gmOU2xPexmFBz-47">
          <mxGeometry relative="1" as="geometry" />
        </mxCell>
        <mxCell id="WVe9Pf1gmOU2xPexmFBz-57" style="edgeStyle=orthogonalEdgeStyle;rounded=0;orthogonalLoop=1;jettySize=auto;html=1;exitX=0;exitY=0.5;exitDx=0;exitDy=0;entryX=1;entryY=0.5;entryDx=0;entryDy=0;endArrow=none;endFill=0;" edge="1" parent="1" source="WVe9Pf1gmOU2xPexmFBz-10" target="WVe9Pf1gmOU2xPexmFBz-49">
          <mxGeometry relative="1" as="geometry" />
        </mxCell>
        <mxCell id="WVe9Pf1gmOU2xPexmFBz-72" style="edgeStyle=orthogonalEdgeStyle;rounded=0;orthogonalLoop=1;jettySize=auto;html=1;exitX=0.75;exitY=1;exitDx=0;exitDy=0;entryX=0;entryY=0.5;entryDx=0;entryDy=0;endArrow=none;endFill=0;" edge="1" parent="1" source="WVe9Pf1gmOU2xPexmFBz-10" target="WVe9Pf1gmOU2xPexmFBz-41">
          <mxGeometry relative="1" as="geometry" />
        </mxCell>
        <mxCell id="WVe9Pf1gmOU2xPexmFBz-73" style="edgeStyle=orthogonalEdgeStyle;rounded=0;orthogonalLoop=1;jettySize=auto;html=1;exitX=0.25;exitY=1;exitDx=0;exitDy=0;entryX=1;entryY=0.5;entryDx=0;entryDy=0;endArrow=none;endFill=0;" edge="1" parent="1" source="WVe9Pf1gmOU2xPexmFBz-10" target="WVe9Pf1gmOU2xPexmFBz-50">
          <mxGeometry relative="1" as="geometry" />
        </mxCell>
        <mxCell id="WVe9Pf1gmOU2xPexmFBz-10" value="Medicamentos" style="whiteSpace=wrap;html=1;align=center;" vertex="1" parent="1">
          <mxGeometry x="580" y="619" width="100" height="40" as="geometry" />
        </mxCell>
        <mxCell id="WVe9Pf1gmOU2xPexmFBz-39" value="&lt;span style=&quot;border-bottom: 1px dotted&quot;&gt;&lt;u&gt;CPF&lt;/u&gt;&lt;/span&gt;" style="ellipse;whiteSpace=wrap;html=1;align=center;" vertex="1" parent="1">
          <mxGeometry x="370" y="509" width="100" height="40" as="geometry" />
        </mxCell>
        <mxCell id="WVe9Pf1gmOU2xPexmFBz-41" value="&lt;span style=&quot;border-bottom: 1px dotted&quot;&gt;Nome&lt;/span&gt;" style="ellipse;whiteSpace=wrap;html=1;align=center;" vertex="1" parent="1">
          <mxGeometry x="760" y="709" width="100" height="40" as="geometry" />
        </mxCell>
        <mxCell id="WVe9Pf1gmOU2xPexmFBz-42" value="Tipo de consulta" style="ellipse;whiteSpace=wrap;html=1;align=center;" vertex="1" parent="1">
          <mxGeometry x="370" y="219" width="100" height="40" as="geometry" />
        </mxCell>
        <mxCell id="WVe9Pf1gmOU2xPexmFBz-43" value="Telefone" style="ellipse;whiteSpace=wrap;html=1;align=center;" vertex="1" parent="1">
          <mxGeometry x="210" y="519" width="100" height="40" as="geometry" />
        </mxCell>
        <mxCell id="WVe9Pf1gmOU2xPexmFBz-44" value="&lt;span style=&quot;border-bottom: 1px dotted&quot;&gt;E-mail&lt;/span&gt;" style="ellipse;whiteSpace=wrap;html=1;align=center;" vertex="1" parent="1">
          <mxGeometry x="910" y="399" width="100" height="40" as="geometry" />
        </mxCell>
        <mxCell id="WVe9Pf1gmOU2xPexmFBz-45" value="&lt;span style=&quot;border-bottom: 1px dotted&quot;&gt;EndereÃ§o&lt;/span&gt;" style="ellipse;whiteSpace=wrap;html=1;align=center;" vertex="1" parent="1">
          <mxGeometry x="210" y="299" width="100" height="40" as="geometry" />
        </mxCell>
        <mxCell id="WVe9Pf1gmOU2xPexmFBz-46" value="&lt;span style=&quot;border-bottom: 1px dotted&quot;&gt;Plano de SaÃºde&lt;/span&gt;" style="ellipse;whiteSpace=wrap;html=1;align=center;" vertex="1" parent="1">
          <mxGeometry x="210" y="399" width="100" height="40" as="geometry" />
        </mxCell>
        <mxCell id="WVe9Pf1gmOU2xPexmFBz-47" value="&lt;span style=&quot;border-bottom: 1px dotted&quot;&gt;&lt;u&gt;Identificador de&amp;nbsp;&lt;br&gt;Medicamento&lt;/u&gt;&lt;br&gt;&lt;/span&gt;" style="ellipse;whiteSpace=wrap;html=1;align=center;" vertex="1" parent="1">
          <mxGeometry x="760" y="619" width="100" height="40" as="geometry" />
        </mxCell>
        <mxCell id="WVe9Pf1gmOU2xPexmFBz-48" value="&lt;span style=&quot;border-bottom: 1px dotted&quot;&gt;Nome&lt;/span&gt;" style="ellipse;whiteSpace=wrap;html=1;align=center;" vertex="1" parent="1">
          <mxGeometry x="370" y="299" width="100" height="40" as="geometry" />
        </mxCell>
        <mxCell id="WVe9Pf1gmOU2xPexmFBz-49" value="&lt;span style=&quot;border-bottom: 1px dotted&quot;&gt;Tipo de medicamento&lt;/span&gt;" style="ellipse;whiteSpace=wrap;html=1;align=center;" vertex="1" parent="1">
          <mxGeometry x="370" y="619" width="100" height="40" as="geometry" />
        </mxCell>
        <mxCell id="WVe9Pf1gmOU2xPexmFBz-50" value="&lt;span style=&quot;border-bottom: 1px dotted&quot;&gt;Dosagem&lt;/span&gt;" style="ellipse;whiteSpace=wrap;html=1;align=center;" vertex="1" parent="1">
          <mxGeometry x="370" y="709" width="100" height="40" as="geometry" />
        </mxCell>
        <mxCell id="WVe9Pf1gmOU2xPexmFBz-51" value="&lt;span style=&quot;border-bottom: 1px dotted&quot;&gt;&lt;u&gt;Identificador de&amp;nbsp;&lt;br&gt;Exame&lt;/u&gt;&lt;br&gt;&lt;/span&gt;" style="ellipse;whiteSpace=wrap;html=1;align=center;" vertex="1" parent="1">
          <mxGeometry x="760" y="187" width="100" height="40" as="geometry" />
        </mxCell>
        <mxCell id="WVe9Pf1gmOU2xPexmFBz-52" value="&lt;span style=&quot;border-bottom: 1px dotted&quot;&gt;ObservaÃ§Ã£o&lt;/span&gt;" style="ellipse;whiteSpace=wrap;html=1;align=center;" vertex="1" parent="1">
          <mxGeometry x="580" y="79" width="100" height="40" as="geometry" />
        </mxCell>
        <mxCell id="WVe9Pf1gmOU2xPexmFBz-53" value="&lt;span style=&quot;border-bottom: 1px dotted&quot;&gt;Resultado&lt;/span&gt;" style="ellipse;whiteSpace=wrap;html=1;align=center;" vertex="1" parent="1">
          <mxGeometry x="760" y="79" width="100" height="40" as="geometry" />
        </mxCell>
        <mxCell id="WVe9Pf1gmOU2xPexmFBz-59" value="&lt;span style=&quot;border-bottom: 1px dotted&quot;&gt;Nome&lt;/span&gt;" style="ellipse;whiteSpace=wrap;html=1;align=center;" vertex="1" parent="1">
          <mxGeometry x="760" y="299" width="100" height="40" as="geometry" />
        </mxCell>
        <mxCell id="WVe9Pf1gmOU2xPexmFBz-78" value="Telefone" style="ellipse;whiteSpace=wrap;html=1;align=center;" vertex="1" parent="1">
          <mxGeometry x="910" y="519" width="100" height="40" as="geometry" />
        </mxCell>
        <mxCell id="WVe9Pf1gmOU2xPexmFBz-81" value="&lt;span style=&quot;border-bottom: 1px dotted&quot;&gt;EndereÃ§o&lt;/span&gt;" style="ellipse;whiteSpace=wrap;html=1;align=center;" vertex="1" parent="1">
          <mxGeometry x="910" y="299" width="100" height="40" as="geometry" />
        </mxCell>
        <mxCell id="WVe9Pf1gmOU2xPexmFBz-83" value="" style="shape=rhombus;perimeter=rhombusPerimeter;whiteSpace=wrap;html=1;align=center;" vertex="1" parent="1">
          <mxGeometry x="590.01" y="289" width="80" height="40" as="geometry" />
        </mxCell>
        <mxCell id="WVe9Pf1gmOU2xPexmFBz-88" style="edgeStyle=orthogonalEdgeStyle;rounded=0;orthogonalLoop=1;jettySize=auto;html=1;entryX=0.5;entryY=1;entryDx=0;entryDy=0;endArrow=none;endFill=0;exitX=0.5;exitY=0;exitDx=0;exitDy=0;" edge="1" parent="1" target="WVe9Pf1gmOU2xPexmFBz-92" source="WVe9Pf1gmOU2xPexmFBz-10">
          <mxGeometry relative="1" as="geometry">
            <mxPoint x="630" y="615" as="sourcePoint" />
            <Array as="points" />
          </mxGeometry>
        </mxCell>
        <mxCell id="WVe9Pf1gmOU2xPexmFBz-89" value="(0,N)" style="edgeLabel;html=1;align=center;verticalAlign=middle;resizable=0;points=[];" vertex="1" connectable="0" parent="WVe9Pf1gmOU2xPexmFBz-88">
          <mxGeometry x="-0.6857" y="-1" relative="1" as="geometry">
            <mxPoint as="offset" />
          </mxGeometry>
        </mxCell>
        <mxCell id="WVe9Pf1gmOU2xPexmFBz-90" style="edgeStyle=orthogonalEdgeStyle;rounded=0;orthogonalLoop=1;jettySize=auto;html=1;exitX=0.5;exitY=1;exitDx=0;exitDy=0;entryX=0.5;entryY=0;entryDx=0;entryDy=0;endArrow=none;endFill=0;" edge="1" parent="1" target="WVe9Pf1gmOU2xPexmFBz-92" source="WVe9Pf1gmOU2xPexmFBz-7">
          <mxGeometry relative="1" as="geometry">
            <mxPoint x="629.99" y="443" as="sourcePoint" />
          </mxGeometry>
        </mxCell>
        <mxCell id="WVe9Pf1gmOU2xPexmFBz-91" value="(1,1)" style="edgeLabel;html=1;align=center;verticalAlign=middle;resizable=0;points=[];" vertex="1" connectable="0" parent="WVe9Pf1gmOU2xPexmFBz-90">
          <mxGeometry x="-0.7281" y="1" relative="1" as="geometry">
            <mxPoint as="offset" />
          </mxGeometry>
        </mxCell>
        <mxCell id="WVe9Pf1gmOU2xPexmFBz-92" value="" style="shape=rhombus;perimeter=rhombusPerimeter;whiteSpace=wrap;html=1;align=center;" vertex="1" parent="1">
          <mxGeometry x="590" y="509" width="80" height="40" as="geometry" />
        </mxCell>
        <mxCell id="WVe9Pf1gmOU2xPexmFBz-95" value="&lt;u&gt;ID&lt;/u&gt;" style="ellipse;whiteSpace=wrap;html=1;align=center;" vertex="1" parent="1">
          <mxGeometry x="370" y="150" width="100" height="40" as="geometry" />
        </mxCell>
        <mxCell id="WVe9Pf1gmOU2xPexmFBz-103" value="Data" style="ellipse;whiteSpace=wrap;html=1;align=center;" vertex="1" parent="1">
          <mxGeometry x="370" y="79" width="100" height="40" as="geometry" />
        </mxCell>
      </root>
    </mxGraphModel>
  </diagram>
</mxfile>
